<?xml version="1.0" encoding="utf-8"?>
<!-- Generator: Adobe Illustrator 22.1.0, SVG Export Plug-In . SVG Version: 6.00 Build 0)  -->
<svg version="1.1" id="Layer_1" xmlns="http://www.w3.org/2000/svg" xmlns:xlink="http://www.w3.org/1999/xlink" x="0px" y="0px"
	 viewBox="0 0 215 41" style="enable-background:new 0 0 215 41;" xml:space="preserve">
<style type="text/css">
	.st0{fill:#FFFFFF;}
	.st1{fill:#8C8C8C;}
	.st2{fill:#FBBB00;}
	.st3{fill:#518EF8;}
	.st4{fill:#28B446;}
	.st5{fill:#F14336;}
	.st6{fill:#5E5E5E;}
</style>
<title>MS-SymbolLockup</title>
<rect y="0" class="st0" width="215" height="41"/>
<path class="st1" d="M214,1v39H1V1H214 M215,0H0v41h215V0z"/>
<g>
	<g>
		<path class="st2" d="M31.3,22.5L30.7,25L28.2,25c-0.7-1.3-1.1-2.9-1.1-4.5c0-1.6,0.4-3.1,1.1-4.4h0l2.2,0.4l0.9,2.1
			c-0.2,0.6-0.3,1.2-0.3,1.8C31,21.2,31.1,21.9,31.3,22.5z"/>
		<path class="st3" d="M45.9,18.7c0.1,0.6,0.2,1.2,0.2,1.8c0,0.7-0.1,1.3-0.2,2c-0.5,2.2-1.7,4.1-3.3,5.4l0,0l-2.7-0.1l-0.4-2.4
			c1.1-0.7,2-1.7,2.4-2.9h-5.1v-3.8H42H45.9L45.9,18.7z"/>
		<path class="st4" d="M42.6,27.9L42.6,27.9c-1.6,1.3-3.7,2.1-5.9,2.1c-3.6,0-6.8-2-8.4-5l3.1-2.5c0.8,2.1,2.9,3.7,5.3,3.7
			c1,0,2-0.3,2.9-0.8L42.6,27.9z"/>
		<path class="st5" d="M42.7,13.2l-3.1,2.5c-0.9-0.5-1.9-0.9-3-0.9c-2.5,0-4.6,1.6-5.3,3.8l-3.1-2.5h0c1.6-3,4.8-5.1,8.4-5.1
			C38.9,11,41,11.8,42.7,13.2z"/>
	</g>
	<g>
		<path class="st6" d="M88,25.5h-1.7v-4.2c0-1.4-0.5-2.1-1.5-2.1c-0.5,0-1,0.2-1.3,0.6c-0.3,0.4-0.5,0.9-0.5,1.5v4.3h-1.7V18H83v1.2
			h0c0.5-0.9,1.4-1.4,2.4-1.4c0.7,0,1.4,0.3,1.9,0.8c0.5,0.7,0.7,1.5,0.6,2.3L88,25.5z"/>
		<g>
			<path class="st6" d="M59.9,25.1v-1.8c0.2,0.2,0.4,0.3,0.6,0.4c0.2,0.1,0.5,0.2,0.7,0.3c0.2,0.1,0.5,0.1,0.7,0.2
				c0.2,0,0.5,0.1,0.7,0.1c0.6,0,1.1-0.1,1.6-0.4c0.4-0.2,0.6-0.6,0.5-1.1c0-0.2-0.1-0.5-0.2-0.6c-0.1-0.2-0.3-0.4-0.5-0.5
				c-0.2-0.2-0.5-0.3-0.8-0.4c-0.3-0.1-0.6-0.3-0.9-0.4c-0.4-0.2-0.7-0.4-1-0.6c-0.3-0.2-0.6-0.4-0.8-0.6c-0.2-0.2-0.4-0.5-0.5-0.8
				c-0.1-0.3-0.2-0.7-0.2-1c0-0.5,0.1-0.9,0.3-1.3c0.2-0.4,0.5-0.7,0.9-0.9c0.4-0.2,0.8-0.4,1.2-0.5c0.5-0.1,0.9-0.2,1.4-0.2
				c0.8,0,1.6,0.1,2.4,0.4v1.7c-0.7-0.5-1.5-0.7-2.3-0.6c-0.3,0-0.5,0-0.8,0.1c-0.2,0-0.5,0.1-0.7,0.2c-0.2,0.1-0.4,0.3-0.5,0.4
				c-0.1,0.2-0.2,0.4-0.2,0.6c0,0.2,0,0.4,0.1,0.6c0.1,0.2,0.3,0.3,0.4,0.5c0.2,0.2,0.4,0.3,0.7,0.4c0.3,0.1,0.6,0.3,0.9,0.4
				c0.4,0.2,0.7,0.4,1,0.6c0.3,0.2,0.6,0.4,0.9,0.7c0.2,0.2,0.4,0.5,0.6,0.8c0.1,0.3,0.2,0.7,0.2,1.1c0,0.5-0.1,0.9-0.3,1.3
				c-0.2,0.4-0.5,0.7-0.9,0.9c-0.4,0.2-0.8,0.4-1.3,0.5c-0.5,0.1-1,0.2-1.5,0.2c-0.2,0-0.4,0-0.6,0s-0.5-0.1-0.8-0.1
				c-0.3,0-0.5-0.1-0.8-0.2C60.3,25.3,60.1,25.2,59.9,25.1z"/>
			<path class="st6" d="M69.2,16.4c-0.3,0-0.5-0.1-0.7-0.3c-0.2-0.2-0.3-0.4-0.3-0.7c0-0.3,0.1-0.5,0.3-0.7c0.2-0.2,0.4-0.3,0.7-0.3
				c0.3,0,0.5,0.1,0.7,0.3c0.2,0.2,0.3,0.4,0.3,0.7c0,0.3-0.1,0.5-0.3,0.7C69.8,16.3,69.5,16.4,69.2,16.4z M70.1,25.5h-1.7V18h1.7
				V25.5z"/>
			<path class="st6" d="M79.1,24.9c0,2.8-1.4,4.1-4.2,4.1c-0.9,0-1.7-0.1-2.6-0.5V27c0.7,0.4,1.5,0.7,2.3,0.7c1.3,0.2,2.5-0.7,2.7-2
				c0-0.2,0-0.4,0-0.7v-0.8h0c-0.8,1.4-2.6,1.9-4,1c-0.3-0.2-0.5-0.4-0.7-0.6c-0.6-0.8-0.9-1.7-0.8-2.7c-0.1-1.1,0.3-2.2,0.9-3
				c0.6-0.8,1.5-1.2,2.5-1.1c0.9,0,1.8,0.4,2.2,1.2h0v-1h1.7L79.1,24.9z M77.4,22.1v-1c0-0.5-0.2-1-0.5-1.4
				c-0.3-0.4-0.8-0.6-1.3-0.6c-0.6,0-1.2,0.2-1.5,0.7c-0.4,0.6-0.6,1.3-0.5,2c0,0.6,0.2,1.3,0.5,1.8c0.3,0.4,0.8,0.7,1.4,0.7
				c0.5,0,1.1-0.2,1.4-0.6C77.3,23.2,77.5,22.7,77.4,22.1L77.4,22.1z"/>
			<path class="st6" d="M95.1,16.4c-0.3,0-0.5-0.1-0.7-0.3c-0.2-0.2-0.3-0.4-0.3-0.7c0-0.3,0.1-0.5,0.3-0.7c0.2-0.2,0.4-0.3,0.7-0.3
				c0.3,0,0.5,0.1,0.7,0.3c0.2,0.2,0.3,0.4,0.3,0.7c0,0.3-0.1,0.5-0.3,0.7C95.6,16.3,95.3,16.4,95.1,16.4z M95.9,25.5h-1.7V18h1.7
				L95.9,25.5z"/>
			<path class="st6" d="M104.8,25.5h-1.7v-4.2c0-1.4-0.5-2.1-1.5-2.1c-0.5,0-1,0.2-1.3,0.6c-0.3,0.4-0.5,0.9-0.5,1.5v4.3h-1.7V18
				h1.7v1.2h0c0.5-0.9,1.4-1.4,2.4-1.4c0.7,0,1.4,0.3,1.9,0.8c0.5,0.7,0.7,1.5,0.6,2.3L104.8,25.5z"/>
			<path class="st6" d="M121.1,18l-2.2,7.5h-1.8l-1.4-5.1c-0.1-0.2-0.1-0.4-0.1-0.7h0c0,0.2-0.1,0.4-0.1,0.6l-1.5,5.1h-1.7L110,18
				h1.8l1.4,5.4c0.1,0.2,0.1,0.4,0.1,0.6h0.1c0-0.2,0.1-0.4,0.1-0.7l1.5-5.4h1.6l1.3,5.4c0.1,0.2,0.1,0.4,0.1,0.6h0.1
				c0-0.2,0.1-0.4,0.1-0.6l1.3-5.4H121.1z"/>
			<path class="st6" d="M123.2,16.4c-0.3,0-0.5-0.1-0.7-0.3c-0.2-0.2-0.3-0.4-0.3-0.7c0-0.3,0.1-0.5,0.3-0.7
				c0.2-0.2,0.4-0.3,0.7-0.3c0.3,0,0.5,0.1,0.7,0.3c0.2,0.2,0.3,0.4,0.3,0.7c0,0.3-0.1,0.5-0.3,0.7
				C123.7,16.3,123.5,16.4,123.2,16.4z M124,25.5h-1.7V18h1.7V25.5z"/>
			<path class="st6" d="M130.2,25.4c-0.4,0.2-0.9,0.3-1.3,0.2c-1.5,0-2.2-0.7-2.2-2.1v-4.2h-1.3V18h1.3v-1.7l1.7-0.5V18h1.8v1.3
				h-1.8v3.8c0,0.3,0.1,0.7,0.2,1c0.2,0.2,0.5,0.3,0.8,0.3c0.3,0,0.5-0.1,0.7-0.2L130.2,25.4z"/>
			<path class="st6" d="M138.4,25.5h-1.7v-4.1c0-1.5-0.5-2.2-1.5-2.2c-0.5,0-1,0.2-1.3,0.6c-0.4,0.5-0.5,1.1-0.5,1.6v4h-1.7V14.4
				h1.7v4.8h0c0.5-0.9,1.4-1.4,2.4-1.4c1.7,0,2.5,1,2.5,3.1L138.4,25.5z"/>
			<g>
				<path class="st6" d="M149,14.3h0.4c1.4,0,2.7,0.6,3.7,1.6c-0.4,0.4-0.7,0.7-1.1,1.1c-0.5-0.5-1.2-0.9-1.9-1
					c-1.1-0.2-2.2,0-3.1,0.6c-1,0.6-1.6,1.7-1.8,2.8c-0.2,1.1,0.2,2.3,0.9,3.2c0.7,0.9,1.8,1.4,2.9,1.4c1,0.1,2.1-0.3,2.9-1
					c0.6-0.5,0.9-1.3,1-2.1c-1.2,0-2.5,0-3.7,0v-1.5h5.2c0.3,1.6-0.1,3.5-1.4,4.7c-0.8,0.8-2,1.3-3.2,1.4c-1.1,0.1-2.3-0.1-3.3-0.7
					c-1.2-0.6-2.2-1.7-2.7-3c-0.4-1.2-0.5-2.5,0-3.7c0.4-1.1,1.1-2,2-2.7C146.8,14.7,147.9,14.3,149,14.3z"/>
				<path class="st6" d="M178.9,14.7h1.6v10.6c-0.5,0-1.1,0-1.6,0C178.9,21.7,178.9,18.2,178.9,14.7L178.9,14.7z"/>
				<path class="st6" d="M158,18.3c1-0.2,2,0,2.9,0.6c0.7,0.5,1.2,1.3,1.4,2.2c0.2,1-0.1,2.2-0.7,3c-0.7,0.9-1.9,1.4-3.1,1.3
					c-1.1-0.1-2.1-0.6-2.7-1.4c-0.7-1-0.9-2.3-0.5-3.4C155.6,19.5,156.7,18.5,158,18.3 M158.2,19.7c-0.4,0.1-0.8,0.3-1,0.7
					c-0.7,0.9-0.7,2.3,0.1,3.1c0.5,0.5,1.1,0.7,1.8,0.6c0.6-0.1,1.1-0.5,1.4-1c0.5-0.9,0.3-2.1-0.4-2.8
					C159.5,19.8,158.8,19.6,158.2,19.7L158.2,19.7z"/>
				<path class="st6" d="M165.8,18.3c1.1-0.2,2.3,0.1,3.2,0.9c1.4,1.2,1.5,3.5,0.3,4.9c-0.7,0.9-1.9,1.4-3,1.3
					c-1.1,0-2.1-0.6-2.8-1.4c-0.7-1-0.9-2.3-0.5-3.4C163.6,19.4,164.6,18.5,165.8,18.3 M166.1,19.7c-0.4,0.1-0.8,0.3-1,0.7
					c-0.7,0.8-0.7,2.2,0.1,3c0.5,0.5,1.2,0.7,1.8,0.6c0.6-0.1,1.1-0.5,1.4-1c0.5-0.9,0.3-2.1-0.4-2.8
					C167.4,19.8,166.7,19.6,166.1,19.7L166.1,19.7z"/>
				<path class="st6" d="M172.5,18.8c0.9-0.5,2-0.7,2.9-0.2c0.3,0.1,0.5,0.3,0.8,0.6c0-0.2,0-0.4,0-0.6c0.5,0,1,0,1.5,0V25
					c0,1-0.3,2-1,2.8c-0.8,0.8-2,1-3.1,0.9c-1.2-0.2-2.2-1-2.6-2.1c0.4-0.2,0.9-0.4,1.4-0.6c0.3,0.6,0.8,1.1,1.4,1.2
					c0.7,0.1,1.4,0,1.9-0.6c0.5-0.6,0.5-1.3,0.4-2c-0.3,0.3-0.7,0.6-1.2,0.7c-1,0.3-2.2-0.1-3-0.8c-0.8-0.7-1.3-1.8-1.2-2.8
					C170.8,20.6,171.5,19.4,172.5,18.8 M174.1,19.7c-0.5,0.1-0.9,0.3-1.2,0.7c-0.7,0.8-0.7,2.2,0,3c0.4,0.5,1,0.8,1.7,0.7
					c0.6-0.1,1.1-0.4,1.4-0.9c0.5-0.9,0.4-2.1-0.3-2.8C175.3,19.8,174.7,19.6,174.1,19.7L174.1,19.7z"/>
				<path class="st6" d="M182.4,19.1c0.9-0.8,2.3-1.1,3.4-0.7c1.1,0.4,1.8,1.4,2.1,2.5c-1.6,0.7-3.2,1.3-4.8,2c0.2,0.4,0.6,0.8,1,1
					c0.6,0.2,1.4,0.1,2-0.3c0.2-0.2,0.4-0.4,0.6-0.6c0.4,0.3,0.8,0.5,1.2,0.8c-0.6,0.9-1.6,1.5-2.6,1.6c-1.2,0.1-2.4-0.3-3.1-1.2
					C180.8,22.8,181,20.4,182.4,19.1 M183.1,20.5c-0.3,0.4-0.4,0.8-0.3,1.2c1.1-0.4,2.2-0.9,3.2-1.3c-0.2-0.4-0.6-0.7-1-0.7
					C184.3,19.6,183.5,19.9,183.1,20.5z"/>
			</g>
		</g>
	</g>
</g>
</svg>
