<svg width="48" height="48" viewBox="0 0 48 48" fill="none" xmlns="http://www.w3.org/2000/svg">
<path fill-rule="evenodd" clip-rule="evenodd" d="M33.4299 11.7694C33.8805 11.7839 34.2802 12.0529 34.4619 12.4599C34.6436 12.8741 34.5709 13.3465 34.2802 13.6736L24.0906 25.593C23.858 25.8546 23.5382 26 23.2039 26C23.0295 26 22.8478 25.9637 22.6806 25.8764C22.2082 25.6366 21.9538 25.0988 22.0774 24.5755L23.6473 17.9035L19.1121 17.7073C18.7414 17.6928 18.4071 17.4965 18.1963 17.1913C17.9855 16.886 17.9419 16.4936 18.0728 16.1447L22.31 4.75586C22.4771 4.30525 22.9132 4 23.4001 4H30.7553C31.1695 4 31.5402 4.22531 31.751 4.57417C31.9618 4.92303 31.969 5.3591 31.7728 5.7225L28.5313 11.6386L33.4299 11.7694ZM26.2346 17.075L25.4424 20.4546L30.9297 14.0297L26.569 13.9134C26.1692 13.9062 25.7986 13.6809 25.5951 13.332C25.3916 12.9759 25.3843 12.5471 25.5805 12.1909L28.7929 6.32574H24.2069L20.8055 15.4615L25.1517 15.6505C25.5006 15.665 25.8204 15.8322 26.0311 16.1084C26.2419 16.3845 26.3146 16.7407 26.2346 17.075ZM42.6747 32.0352C42.7275 32.0411 42.7803 32.0469 42.8331 32.0587C43.5017 32.1994 44.0002 32.7859 44.0002 33.4956V42.5337C44.0002 43.3431 43.3433 44 42.534 44H41.5017H40.3815H40.3169H39.3199H21.4782C19.4841 44 17.6073 43.2317 16.1879 41.8416L5.31401 31.173C4.48116 30.3519 4.01196 29.2493 4.00023 28.0762C3.9885 26.9032 4.43424 25.7947 5.25536 24.956C6.07647 24.1232 7.17911 23.654 8.35213 23.6422C9.52515 23.6305 10.6337 24.0762 11.4724 24.8974L16.1293 29.4663C16.8213 28.1818 18.182 27.3079 19.7422 27.3079L29.8771 27.3021H30.0941C33.6659 27.349 37.0853 28.4692 39.9885 30.5455L41.5017 31.6305C41.5017 31.6305 42.0765 31.9296 42.6747 32.0352ZM39.314 41.0674H40.3111H41.0559V34.956L40.3639 34.4223L38.27 32.9208C35.8595 31.1965 33.0149 30.2639 30.0471 30.2287H29.8653L19.7304 30.2346C19.0853 30.2346 18.5574 30.7625 18.5574 31.4076C18.5574 31.7947 18.751 32.1584 19.0735 32.3754C19.4606 32.6393 19.7891 32.7742 19.9181 32.8035C20.487 32.8856 27.0032 33.5836 31.2788 34.0352L30.9738 36.9501C27.6483 36.5982 19.8536 35.7713 19.402 35.6891C18.6043 35.5425 17.8243 35.0674 17.4254 34.7977C17.0501 34.5396 16.7275 34.2229 16.4577 33.871L16.446 33.8827L9.41372 26.9853C9.13806 26.7155 8.76269 26.5689 8.37559 26.5689C7.98263 26.5748 7.61899 26.7273 7.34333 27.0088C7.07354 27.2845 6.92105 27.654 6.92691 28.0469C6.93278 28.4399 7.08527 28.8035 7.36679 29.0792L18.2407 39.7478C19.1087 40.5982 20.2583 41.0674 21.4782 41.0674H39.314Z" fill="black"/>
<mask id="mask0" mask-type="alpha" maskUnits="userSpaceOnUse" x="4" y="4" width="41" height="40">
<path fill-rule="evenodd" clip-rule="evenodd" d="M33.4299 11.7694C33.8805 11.7839 34.2802 12.0529 34.4619 12.4599C34.6436 12.8741 34.5709 13.3465 34.2802 13.6736L24.0906 25.593C23.858 25.8546 23.5382 26 23.2039 26C23.0295 26 22.8478 25.9637 22.6806 25.8764C22.2082 25.6366 21.9538 25.0988 22.0774 24.5755L23.6473 17.9035L19.1121 17.7073C18.7414 17.6928 18.4071 17.4965 18.1963 17.1913C17.9855 16.886 17.9419 16.4936 18.0728 16.1447L22.31 4.75586C22.4771 4.30525 22.9132 4 23.4001 4H30.7553C31.1696 4 31.5402 4.22531 31.751 4.57417C31.9618 4.92303 31.969 5.3591 31.7728 5.7225L28.5313 11.6386L33.4299 11.7694ZM26.2346 17.075L25.4424 20.4546L30.9297 14.0297L26.569 13.9134C26.1692 13.9062 25.7986 13.6809 25.5951 13.332C25.3916 12.9759 25.3843 12.5471 25.5805 12.1909L28.7929 6.32574H24.2069L20.8055 15.4615L25.1517 15.6505C25.5006 15.665 25.8204 15.8322 26.0311 16.1084C26.2419 16.3845 26.3146 16.7407 26.2346 17.075ZM42.6747 32.0352C42.7275 32.0411 42.7803 32.0469 42.8331 32.0587C43.5017 32.1994 44.0002 32.7859 44.0002 33.4956V42.5337C44.0002 43.3431 43.3433 44 42.534 44H41.5017H40.3815H40.3169H39.3199H21.4782C19.4841 44 17.6073 43.2317 16.1879 41.8416L5.31401 31.173C4.48116 30.3519 4.01196 29.2493 4.00023 28.0762C3.9885 26.9032 4.43424 25.7947 5.25536 24.956C6.07647 24.1232 7.17911 23.654 8.35213 23.6422C9.52515 23.6305 10.6337 24.0762 11.4724 24.8974L16.1293 29.4663C16.8213 28.1818 18.182 27.3079 19.7422 27.3079L29.8771 27.3021H30.0941C33.6659 27.349 37.0853 28.4692 39.9885 30.5455L41.5017 31.6305C41.5017 31.6305 42.0765 31.9296 42.6747 32.0352ZM39.314 41.0674H40.3111H41.0559V34.956L40.3639 34.4223L38.27 32.9208C35.8595 31.1965 33.0149 30.2639 30.0471 30.2287H29.8653L19.7304 30.2346C19.0853 30.2346 18.5574 30.7625 18.5574 31.4076C18.5574 31.7947 18.751 32.1584 19.0735 32.3754C19.4606 32.6393 19.7891 32.7742 19.9181 32.8035C20.487 32.8856 27.0032 33.5836 31.2788 34.0352L30.9738 36.9501C27.6483 36.5982 19.8536 35.7713 19.402 35.6891C18.6043 35.5425 17.8243 35.0674 17.4254 34.7977C17.0501 34.5396 16.7275 34.2229 16.4577 33.871L16.446 33.8827L9.41372 26.9853C9.13806 26.7155 8.76269 26.5689 8.37559 26.5689C7.98263 26.5748 7.61899 26.7273 7.34333 27.0088C7.07354 27.2845 6.92105 27.654 6.92691 28.0469C6.93278 28.4399 7.08527 28.8035 7.36679 29.0792L18.2407 39.7478C19.1087 40.5982 20.2583 41.0674 21.4782 41.0674H39.314Z" fill="white"/>
</mask>
<g mask="url(#mask0)">
<rect width="48" height="48" fill="#FF9F43"/>
</g>
</svg>
