<svg width="48" height="48" viewBox="0 0 48 48" fill="none" xmlns="http://www.w3.org/2000/svg">
<path fill-rule="evenodd" clip-rule="evenodd" d="M33.4766 6.60938V14.5625C36.4531 15.1719 38.6953 17.8047 38.6953 20.9531V37.4766C38.6953 41.0781 35.7656 44 32.1719 44H16.5234C12.9219 44 10 41.0703 10 37.4766V20.9531C10 17.8047 12.2422 15.1719 15.2188 14.5703V6.60938H13.9141C13.1953 6.60938 12.6094 6.02344 12.6094 5.30469C12.6094 4.58594 13.1953 4 13.9141 4H34.7812C35.5 4 36.0859 4.58594 36.0859 5.30469C36.0859 6.02344 35.5 6.60938 34.7812 6.60938H33.4766ZM30.8672 14.4375V6.60938H17.8281V14.4375H23.0469V11.8281H21.7344C21.0156 11.8281 20.4297 11.2422 20.4297 10.5234C20.4297 9.80469 21.0156 9.21875 21.7344 9.21875H26.9531C27.6719 9.21875 28.2578 9.80469 28.2578 10.5234C28.2578 11.2422 27.6719 11.8281 26.9531 11.8281H25.6484V14.4375H30.8672ZM32.1719 41.3906C34.3281 41.3906 36.0859 39.6328 36.0859 37.4766V20.9531C36.0859 18.7969 34.3281 17.0391 32.1719 17.0391H16.5234C14.3672 17.0391 12.6094 18.7969 12.6094 20.9531V37.4766C12.6094 39.6328 14.3672 41.3906 16.5234 41.3906H32.1719ZM26.6406 23.7109C27.1172 23.4609 27.6875 23.5703 28.0469 23.9609C29.5703 25.6406 30.5078 27.4453 30.8281 29.3281C31.7344 33.4375 28.5469 37.2422 24.3281 37.2422C20.6875 37.2422 17.7188 34.3359 17.7188 30.7656C17.7188 24.9531 23.4922 21.4844 23.7344 21.3438C24.5078 20.8906 25.5469 21.4609 25.5469 22.3828V24.2734L26.6406 23.7109ZM20.0625 30.7734C20.0625 33.0547 21.9766 34.9062 24.3281 34.9062C27.0078 34.9062 29.1484 32.5234 28.5391 29.8125C28.5312 29.7891 28.5234 29.7656 28.5234 29.7422C28.3281 28.5469 27.7734 27.3594 26.8906 26.2188L24.9141 27.2344C24.1328 27.6406 23.2031 27.0703 23.2031 26.1953V24.6875C21.8047 25.9609 20.0625 28.0859 20.0625 30.7734Z" fill="black"/>
<mask id="mask0" mask-type="alpha" maskUnits="userSpaceOnUse" x="10" y="4" width="29" height="40">
<path fill-rule="evenodd" clip-rule="evenodd" d="M33.4766 6.60938V14.5625C36.4531 15.1719 38.6953 17.8047 38.6953 20.9531V37.4766C38.6953 41.0781 35.7656 44 32.1719 44H16.5234C12.9219 44 10 41.0703 10 37.4766V20.9531C10 17.8047 12.2422 15.1719 15.2188 14.5703V6.60938H13.9141C13.1953 6.60938 12.6094 6.02344 12.6094 5.30469C12.6094 4.58594 13.1953 4 13.9141 4H34.7812C35.5 4 36.0859 4.58594 36.0859 5.30469C36.0859 6.02344 35.5 6.60938 34.7812 6.60938H33.4766ZM30.8672 14.4375V6.60938H17.8281V14.4375H23.0469V11.8281H21.7344C21.0156 11.8281 20.4297 11.2422 20.4297 10.5234C20.4297 9.80469 21.0156 9.21875 21.7344 9.21875H26.9531C27.6719 9.21875 28.2578 9.80469 28.2578 10.5234C28.2578 11.2422 27.6719 11.8281 26.9531 11.8281H25.6484V14.4375H30.8672ZM32.1719 41.3906C34.3281 41.3906 36.0859 39.6328 36.0859 37.4766V20.9531C36.0859 18.7969 34.3281 17.0391 32.1719 17.0391H16.5234C14.3672 17.0391 12.6094 18.7969 12.6094 20.9531V37.4766C12.6094 39.6328 14.3672 41.3906 16.5234 41.3906H32.1719ZM26.6406 23.7109C27.1172 23.4609 27.6875 23.5703 28.0469 23.9609C29.5703 25.6406 30.5078 27.4453 30.8281 29.3281C31.7344 33.4375 28.5469 37.2422 24.3281 37.2422C20.6875 37.2422 17.7188 34.3359 17.7188 30.7656C17.7188 24.9531 23.4922 21.4844 23.7344 21.3438C24.5078 20.8906 25.5469 21.4609 25.5469 22.3828V24.2734L26.6406 23.7109ZM20.0625 30.7734C20.0625 33.0547 21.9766 34.9062 24.3281 34.9062C27.0078 34.9062 29.1484 32.5234 28.5391 29.8125C28.5312 29.7891 28.5234 29.7656 28.5234 29.7422C28.3281 28.5469 27.7734 27.3594 26.8906 26.2188L24.9141 27.2344C24.1328 27.6406 23.2031 27.0703 23.2031 26.1953V24.6875C21.8047 25.9609 20.0625 28.0859 20.0625 30.7734Z" fill="white"/>
</mask>
<g mask="url(#mask0)">
<rect width="48" height="48" fill="#FF9F43"/>
</g>
</svg>
