<svg width="18" height="18" viewBox="0 0 18 18" fill="none" xmlns="http://www.w3.org/2000/svg">
<path d="M11.0176 1.72101C10.9476 1.65094 10.8644 1.59536 10.7728 1.55744C10.6813 1.51952 10.5832 1.5 10.4841 1.5C10.385 1.5 10.2869 1.51952 10.1954 1.55744C10.1038 1.59536 10.0206 1.65094 9.95057 1.72101C9.80908 1.86252 9.72958 2.05445 9.72958 2.25458C9.72958 2.45471 9.80908 2.64664 9.95057 2.78815L10.1009 2.93845L4.08932 7.5978L3.48065 6.98156C3.33915 6.84005 3.14724 6.76055 2.94713 6.76055C2.74702 6.76055 2.5551 6.84005 2.4136 6.98156C2.2721 7.12307 2.19261 7.315 2.19261 7.51513C2.19261 7.71526 2.2721 7.90719 2.4136 8.0487L5.65984 11.2727L1.72228 15.2106C1.65184 15.2804 1.59594 15.3635 1.55779 15.4551C1.51964 15.5467 1.5 15.6449 1.5 15.7441C1.5 15.8433 1.51964 15.9416 1.55779 16.0331C1.59594 16.1247 1.65184 16.2078 1.72228 16.2777C1.79213 16.3481 1.87524 16.4041 1.96681 16.4422C2.05838 16.4804 2.1566 16.5 2.2558 16.5C2.355 16.5 2.45322 16.4804 2.54479 16.4422C2.63636 16.4041 2.71947 16.3481 2.78932 16.2777L6.72688 12.3248L9.95057 15.5412C10.0204 15.6117 10.1035 15.6676 10.1951 15.7057C10.2867 15.7439 10.3849 15.7635 10.4841 15.7635C10.5833 15.7635 10.6815 15.7439 10.7731 15.7057C10.8647 15.6676 10.9478 15.6117 11.0176 15.5412C11.0881 15.4714 11.144 15.3882 11.1821 15.2967C11.2203 15.2051 11.2399 15.1069 11.2399 15.0077C11.2399 14.9085 11.2203 14.8102 11.1821 14.7186C11.144 14.6271 11.0881 14.544 11.0176 14.4741L10.4165 13.8729L15.0604 7.86083L15.2107 8.01113C15.2805 8.08156 15.3636 8.13747 15.4552 8.17562C15.5468 8.21378 15.645 8.23342 15.7442 8.23342C15.8434 8.23342 15.9416 8.21378 16.0332 8.17562C16.1248 8.13747 16.2079 8.08156 16.2777 8.01113C16.3482 7.94126 16.4041 7.85815 16.4422 7.76657C16.4804 7.67499 16.5 7.57676 16.5 7.47756C16.5 7.37835 16.4804 7.28012 16.4422 7.18854C16.4041 7.09697 16.3482 7.01385 16.2777 6.94399L11.0176 1.72101ZM9.34191 12.7757L5.224 8.66494L11.2355 4.00559L14.0535 6.82375L9.34191 12.7757Z" fill="#D8D8D8"/>
<mask id="mask0" mask-type="alpha" maskUnits="userSpaceOnUse" x="1" y="1" width="16" height="16">
<path d="M11.0176 1.72101C10.9476 1.65094 10.8644 1.59536 10.7728 1.55744C10.6813 1.51952 10.5832 1.5 10.4841 1.5C10.385 1.5 10.2869 1.51952 10.1954 1.55744C10.1038 1.59536 10.0206 1.65094 9.95057 1.72101C9.80908 1.86252 9.72958 2.05445 9.72958 2.25458C9.72958 2.45471 9.80908 2.64664 9.95057 2.78815L10.1009 2.93845L4.08932 7.5978L3.48065 6.98156C3.33915 6.84005 3.14724 6.76055 2.94713 6.76055C2.74702 6.76055 2.5551 6.84005 2.4136 6.98156C2.2721 7.12307 2.19261 7.315 2.19261 7.51513C2.19261 7.71526 2.2721 7.90719 2.4136 8.0487L5.65984 11.2727L1.72228 15.2106C1.65184 15.2804 1.59594 15.3635 1.55779 15.4551C1.51964 15.5467 1.5 15.6449 1.5 15.7441C1.5 15.8433 1.51964 15.9416 1.55779 16.0331C1.59594 16.1247 1.65184 16.2078 1.72228 16.2777C1.79213 16.3481 1.87524 16.4041 1.96681 16.4422C2.05838 16.4804 2.1566 16.5 2.2558 16.5C2.355 16.5 2.45322 16.4804 2.54479 16.4422C2.63636 16.4041 2.71947 16.3481 2.78932 16.2777L6.72688 12.3248L9.95057 15.5412C10.0204 15.6117 10.1035 15.6676 10.1951 15.7057C10.2867 15.7439 10.3849 15.7635 10.4841 15.7635C10.5833 15.7635 10.6815 15.7439 10.7731 15.7057C10.8647 15.6676 10.9478 15.6117 11.0176 15.5412C11.0881 15.4714 11.144 15.3882 11.1821 15.2967C11.2203 15.2051 11.2399 15.1069 11.2399 15.0077C11.2399 14.9085 11.2203 14.8102 11.1821 14.7186C11.144 14.6271 11.0881 14.544 11.0176 14.4741L10.4165 13.8729L15.0604 7.86083L15.2107 8.01113C15.2805 8.08156 15.3636 8.13747 15.4552 8.17562C15.5468 8.21378 15.645 8.23342 15.7442 8.23342C15.8434 8.23342 15.9416 8.21378 16.0332 8.17562C16.1248 8.13747 16.2079 8.08156 16.2777 8.01113C16.3482 7.94126 16.4041 7.85815 16.4422 7.76657C16.4804 7.67499 16.5 7.57676 16.5 7.47756C16.5 7.37835 16.4804 7.28012 16.4422 7.18854C16.4041 7.09697 16.3482 7.01385 16.2777 6.94399L11.0176 1.72101ZM9.34191 12.7757L5.224 8.66494L11.2355 4.00559L14.0535 6.82375L9.34191 12.7757Z" fill="white"/>
</mask>
<g mask="url(#mask0)">
<rect width="18" height="18" fill="#6E6B7B"/>
</g>
</svg>
