<svg width="52" height="52" viewBox="0 0 52 52" fill="none" xmlns="http://www.w3.org/2000/svg">
<path fill-rule="evenodd" clip-rule="evenodd" d="M19.2038 32.0514C21.3196 32.0514 22.4538 32.8978 23.3593 33.5749C24.1295 34.1589 24.6966 34.5736 25.9238 34.599V32.2715C25.9238 29.5378 24.9674 27.3965 23.0801 25.89C21.9375 24.9759 20.4817 24.3581 19.0176 24.1211V26.0762C19.0176 26.7787 18.4505 27.3457 17.748 27.3457H14.4388C12.7292 27.3457 11.2819 26.2116 10.7995 24.6543H5.63672C4.93424 24.6543 4.36719 24.0872 4.36719 23.3848C4.36719 22.6823 4.93424 22.1152 5.63672 22.1152H10.6302V13.8971H5.63672C4.93424 13.8971 4.36719 13.3301 4.36719 12.6276C4.36719 11.9251 4.93424 11.3581 5.63672 11.3581H10.7995C11.2734 9.80079 12.7292 8.66667 14.4388 8.66667H17.748C18.4505 8.66667 19.0176 9.23373 19.0176 9.9362V11.7474H20.4987C25.8561 11.7474 30.8919 13.8294 34.692 17.6211C38.4752 21.4128 40.5657 26.4486 40.5657 31.806V34.4974C41.2322 34.3391 41.6772 34.0086 42.2238 33.6028L42.2499 33.5833L42.258 33.5773C43.1622 32.9012 44.2875 32.0599 46.4055 32.0599C47.108 32.0599 47.6751 32.627 47.6751 33.3294C47.6751 34.0319 47.108 34.599 46.4055 34.599C45.1275 34.599 44.552 35.0221 43.7649 35.6146L43.7568 35.6206C42.8526 36.2967 41.7274 37.138 39.6093 37.138H39.4062C39.3723 37.1465 39.33 37.1465 39.2962 37.1465C39.2115 37.1465 39.1354 37.138 39.0592 37.1211C37.2864 36.986 36.2798 36.2362 35.4516 35.6193L35.4453 35.6146C34.6582 35.0221 34.0826 34.599 32.8046 34.599C31.5267 34.599 30.9511 35.0221 30.164 35.6146L30.1267 35.6421C29.5256 36.0848 28.8227 36.6024 27.8112 36.8926C27.625 36.9941 27.4134 37.0534 27.1849 37.0534C27.1731 37.0534 27.1595 37.0516 27.1449 37.0496C27.128 37.0474 27.1099 37.0449 27.0918 37.0449C26.7532 37.1042 26.3978 37.1296 26 37.1296C23.8841 37.1296 22.75 36.2832 21.8444 35.6061C21.0573 35.0137 20.4817 34.5905 19.2038 34.5905C17.9258 34.5905 17.3502 35.0137 16.5631 35.6061C15.6575 36.2832 14.5234 37.1296 12.4075 37.1296C10.2917 37.1296 9.15755 36.2832 8.25195 35.6061L8.2497 35.6045C7.45531 35.0129 6.88812 34.5905 5.61133 34.5905C4.90885 34.5905 4.3418 34.0234 4.3418 33.321C4.3418 32.6185 4.90885 32.0514 5.61133 32.0514C7.72721 32.0514 8.86132 32.8978 9.76692 33.5749L9.76918 33.5766C10.5636 34.1681 11.1308 34.5905 12.4075 34.5905C13.6855 34.5905 14.2611 34.1673 15.0482 33.5749L15.0562 33.5688C15.9605 32.8928 17.0857 32.0514 19.2038 32.0514ZM14.4388 24.8066H16.4785V11.2057H14.4388C13.7363 11.2057 13.1693 11.7728 13.1693 12.4753V23.5371C13.1693 24.2396 13.7363 24.8066 14.4388 24.8066ZM19.0091 21.5566C21.0403 21.8106 23.0801 22.6484 24.6543 23.901C26.3893 25.2806 28.4544 27.8535 28.4629 32.2715V33.7188C28.48 33.7065 28.4978 33.6943 28.516 33.6818C28.5606 33.6513 28.6069 33.6194 28.6491 33.5833L28.6571 33.5773C29.5613 32.9012 30.6866 32.0599 32.8046 32.0599C34.9205 32.0599 36.0546 32.9063 36.9602 33.5833C37.3242 33.8626 37.6458 34.0996 38.0182 34.2774V31.806C38.0182 22.1491 30.1556 14.2865 20.4987 14.2865H19.0091V21.5566ZM42.2496 41.1945C43.1538 40.5184 44.2791 39.6771 46.3971 39.6771C47.0996 39.6771 47.6667 40.2441 47.6667 40.9466C47.6667 41.6491 47.0996 42.2162 46.3971 42.2162C45.1191 42.2162 44.5436 42.6393 43.7565 43.2318L43.7484 43.2378C42.8442 43.9139 41.7189 44.7552 39.6009 44.7552C37.485 44.7552 36.3509 43.9089 35.4453 43.2318C34.6582 42.6393 34.0827 42.2162 32.8047 42.2162C31.5267 42.2162 30.9512 42.6393 30.1641 43.2318C29.2585 43.9089 28.1244 44.7552 26.0085 44.7552C23.8926 44.7552 22.7585 43.9089 21.8529 43.2318C21.0658 42.6393 20.4902 42.2162 19.2122 42.2162C17.9342 42.2162 17.3587 42.6393 16.5716 43.2318C15.666 43.9089 14.5319 44.7552 12.416 44.7552C10.3001 44.7552 9.16602 43.9089 8.26042 43.2318L8.25817 43.2301C7.46377 42.6385 6.89658 42.2162 5.61979 42.2162C4.91732 42.2162 4.35026 41.6491 4.35026 40.9466C4.35026 40.2441 4.91732 39.6771 5.61979 39.6771C7.73568 39.6771 8.86979 40.5234 9.77539 41.2005L9.77765 41.2022C10.572 41.7938 11.1392 42.2162 12.416 42.2162C13.694 42.2162 14.2695 41.793 15.0566 41.2005L15.0647 41.1945C15.9689 40.5184 17.0942 39.6771 19.2122 39.6771C21.3281 39.6771 22.4622 40.5234 23.3678 41.2005L23.3701 41.2022C24.1645 41.7938 24.7317 42.2162 26.0085 42.2162C27.2865 42.2162 27.862 41.793 28.6491 41.2005L28.6572 41.1945C29.5614 40.5184 30.6866 39.6771 32.8047 39.6771C34.9206 39.6771 36.0547 40.5234 36.9603 41.2005C37.7474 41.793 38.3229 42.2162 39.6009 42.2162C40.8789 42.2162 41.4544 41.793 42.2415 41.2005L42.2496 41.1945Z" fill="black"/>
<mask id="mask0" mask-type="alpha" maskUnits="userSpaceOnUse" x="4" y="8" width="44" height="37">
<path fill-rule="evenodd" clip-rule="evenodd" d="M19.2038 32.0514C21.3196 32.0514 22.4538 32.8978 23.3593 33.5749C24.1295 34.1589 24.6966 34.5736 25.9238 34.599V32.2715C25.9238 29.5378 24.9674 27.3965 23.0801 25.89C21.9375 24.9759 20.4817 24.3581 19.0176 24.1211V26.0762C19.0176 26.7787 18.4505 27.3457 17.748 27.3457H14.4388C12.7292 27.3457 11.2819 26.2116 10.7995 24.6543H5.63672C4.93424 24.6543 4.36719 24.0872 4.36719 23.3848C4.36719 22.6823 4.93424 22.1152 5.63672 22.1152H10.6302V13.8971H5.63672C4.93424 13.8971 4.36719 13.3301 4.36719 12.6276C4.36719 11.9251 4.93424 11.3581 5.63672 11.3581H10.7995C11.2734 9.80079 12.7292 8.66667 14.4388 8.66667H17.748C18.4505 8.66667 19.0176 9.23373 19.0176 9.9362V11.7474H20.4987C25.8561 11.7474 30.8919 13.8294 34.692 17.6211C38.4752 21.4128 40.5657 26.4486 40.5657 31.806V34.4974C41.2322 34.3391 41.6772 34.0086 42.2238 33.6028L42.2499 33.5833L42.258 33.5773C43.1622 32.9012 44.2875 32.0599 46.4055 32.0599C47.108 32.0599 47.6751 32.627 47.6751 33.3294C47.6751 34.0319 47.108 34.599 46.4055 34.599C45.1275 34.599 44.552 35.0221 43.7649 35.6146L43.7568 35.6206C42.8526 36.2967 41.7274 37.138 39.6093 37.138H39.4062C39.3723 37.1465 39.33 37.1465 39.2962 37.1465C39.2115 37.1465 39.1354 37.138 39.0592 37.1211C37.2864 36.986 36.2798 36.2362 35.4516 35.6193L35.4453 35.6146C34.6582 35.0221 34.0826 34.599 32.8046 34.599C31.5267 34.599 30.9511 35.0221 30.164 35.6146L30.1267 35.6421C29.5256 36.0848 28.8227 36.6024 27.8112 36.8926C27.625 36.9941 27.4134 37.0534 27.1849 37.0534C27.1731 37.0534 27.1595 37.0516 27.1449 37.0496C27.128 37.0474 27.1099 37.0449 27.0918 37.0449C26.7532 37.1042 26.3978 37.1296 26 37.1296C23.8841 37.1296 22.75 36.2832 21.8444 35.6061C21.0573 35.0137 20.4817 34.5905 19.2038 34.5905C17.9258 34.5905 17.3502 35.0137 16.5631 35.6061C15.6575 36.2832 14.5234 37.1296 12.4075 37.1296C10.2917 37.1296 9.15755 36.2832 8.25195 35.6061L8.2497 35.6045C7.45531 35.0129 6.88812 34.5905 5.61133 34.5905C4.90885 34.5905 4.3418 34.0234 4.3418 33.321C4.3418 32.6185 4.90885 32.0514 5.61133 32.0514C7.72721 32.0514 8.86132 32.8978 9.76692 33.5749L9.76918 33.5766C10.5636 34.1681 11.1308 34.5905 12.4075 34.5905C13.6855 34.5905 14.2611 34.1673 15.0482 33.5749L15.0562 33.5688C15.9605 32.8928 17.0857 32.0514 19.2038 32.0514ZM14.4388 24.8066H16.4785V11.2057H14.4388C13.7363 11.2057 13.1693 11.7728 13.1693 12.4753V23.5371C13.1693 24.2396 13.7363 24.8066 14.4388 24.8066ZM19.0091 21.5566C21.0403 21.8106 23.0801 22.6484 24.6543 23.901C26.3893 25.2806 28.4544 27.8535 28.4629 32.2715V33.7188C28.48 33.7065 28.4978 33.6943 28.516 33.6818C28.5606 33.6513 28.6069 33.6194 28.6491 33.5833L28.6571 33.5773C29.5613 32.9012 30.6866 32.0599 32.8046 32.0599C34.9205 32.0599 36.0546 32.9063 36.9602 33.5833C37.3242 33.8626 37.6458 34.0996 38.0182 34.2774V31.806C38.0182 22.1491 30.1556 14.2865 20.4987 14.2865H19.0091V21.5566ZM42.2496 41.1945C43.1538 40.5184 44.2791 39.6771 46.3971 39.6771C47.0996 39.6771 47.6667 40.2441 47.6667 40.9466C47.6667 41.6491 47.0996 42.2162 46.3971 42.2162C45.1191 42.2162 44.5436 42.6393 43.7565 43.2318L43.7484 43.2378C42.8442 43.9139 41.7189 44.7552 39.6009 44.7552C37.485 44.7552 36.3509 43.9089 35.4453 43.2318C34.6582 42.6393 34.0827 42.2162 32.8047 42.2162C31.5267 42.2162 30.9512 42.6393 30.1641 43.2318C29.2585 43.9089 28.1244 44.7552 26.0085 44.7552C23.8926 44.7552 22.7585 43.9089 21.8529 43.2318C21.0658 42.6393 20.4902 42.2162 19.2122 42.2162C17.9342 42.2162 17.3587 42.6393 16.5716 43.2318C15.666 43.9089 14.5319 44.7552 12.416 44.7552C10.3001 44.7552 9.16602 43.9089 8.26042 43.2318L8.25817 43.2301C7.46377 42.6385 6.89658 42.2162 5.61979 42.2162C4.91732 42.2162 4.35026 41.6491 4.35026 40.9466C4.35026 40.2441 4.91732 39.6771 5.61979 39.6771C7.73568 39.6771 8.86979 40.5234 9.77539 41.2005L9.77765 41.2022C10.572 41.7938 11.1392 42.2162 12.416 42.2162C13.694 42.2162 14.2695 41.793 15.0566 41.2005L15.0647 41.1945C15.9689 40.5184 17.0942 39.6771 19.2122 39.6771C21.3281 39.6771 22.4622 40.5234 23.3678 41.2005L23.3701 41.2022C24.1645 41.7938 24.7317 42.2162 26.0085 42.2162C27.2865 42.2162 27.862 41.793 28.6491 41.2005L28.6572 41.1945C29.5614 40.5184 30.6866 39.6771 32.8047 39.6771C34.9206 39.6771 36.0547 40.5234 36.9603 41.2005C37.7474 41.793 38.3229 42.2162 39.6009 42.2162C40.8789 42.2162 41.4544 41.793 42.2415 41.2005L42.2496 41.1945Z" fill="white"/>
</mask>
<g mask="url(#mask0)">
<rect width="52" height="52" fill="#00CFE8"/>
</g>
</svg>
