<svg width="52" height="52" viewBox="0 0 52 52" fill="none" xmlns="http://www.w3.org/2000/svg">
<path fill-rule="evenodd" clip-rule="evenodd" d="M29.1896 6.04887C29.1896 6.88758 30.5684 8.59677 31.6803 9.96285L31.6955 9.98165C33.4964 12.2073 35.5371 14.7295 35.5371 17.4223V17.6129C35.5371 21.9971 31.9853 25.5743 27.6075 25.5743C23.2296 25.5743 19.6715 22.0034 19.6715 17.6193V17.4223C19.6715 14.7473 21.7174 12.2058 23.5283 9.96285L23.5303 9.96032C24.6419 8.58198 26.019 6.87437 26.019 6.04887V6.00439C26.0126 5.94721 26.0126 5.89002 26.0254 5.80742C26.0698 5.33724 26.3113 4.33333 27.6075 4.33333H27.6202C28.9037 4.33968 29.1388 5.33724 29.1832 5.80742C29.193 5.87065 29.1915 5.92271 29.1903 5.96645C29.19 5.97985 29.1896 5.99247 29.1896 6.00439V6.04887ZM27.6075 22.391C30.2316 22.391 32.3666 20.2497 32.3666 17.6129H32.3729V17.4159C32.3729 15.8565 30.7167 13.8077 29.2494 11.9926L29.2214 11.958C28.6495 11.259 28.0967 10.5665 27.6075 9.8866C27.1246 10.5665 26.5718 11.2527 26.0063 11.9516L25.9981 11.9617C24.5197 13.7955 22.8484 15.8684 22.8484 17.4223V17.6129C22.8484 20.2497 24.9833 22.391 27.6075 22.391ZM46.2306 34.7048C46.2878 34.7111 46.345 34.7175 46.4022 34.7302C47.1265 34.8827 47.6666 35.5181 47.6666 36.2869V46.0782C47.6666 46.955 46.955 47.6667 46.0781 47.6667H44.9598H43.7463H43.6764H42.5962H23.2678C21.1074 47.6667 19.0742 46.8343 17.5366 45.3284L5.75652 33.7708C4.85427 32.8812 4.34596 31.6867 4.33325 30.4159C4.32054 29.1452 4.80344 27.9443 5.69298 27.0357C6.58252 26.1334 7.77705 25.6251 9.04782 25.6124C10.3186 25.5997 11.5195 26.0826 12.4281 26.9721L17.473 31.9218C18.2228 30.5303 19.6969 29.5836 21.387 29.5836L32.3665 29.5772H32.6016C36.4711 29.628 40.1754 30.8416 43.3205 33.0909L44.9598 34.2664C44.9598 34.2664 45.5825 34.5904 46.2306 34.7048ZM42.5898 44.4897H43.67H44.4769V37.869L43.7272 37.2908L41.4589 35.6642C38.8474 33.7962 35.7658 32.7859 32.5507 32.7478H32.3538L21.3743 32.7541C20.6754 32.7541 20.1035 33.326 20.1035 34.0249C20.1035 34.4443 20.3132 34.8382 20.6627 35.0733C21.082 35.3592 21.4378 35.5054 21.5776 35.5371C22.194 35.6261 29.2531 36.3822 33.8851 36.8715L33.5547 40.0293C29.952 39.6481 21.5077 38.7522 21.0185 38.6632C20.1544 38.5044 19.3093 37.9897 18.8772 37.6975C18.4706 37.4179 18.1211 37.0748 17.8289 36.6935L17.8161 36.7063L10.1979 29.2341C9.89924 28.9418 9.49259 28.783 9.07323 28.783C8.64752 28.7893 8.25358 28.9545 7.95495 29.2595C7.66268 29.5582 7.49748 29.9585 7.50383 30.3842C7.51018 30.8099 7.67538 31.2038 7.98037 31.5024L19.7604 43.0601C20.7008 43.9814 21.9462 44.4897 23.2678 44.4897H42.5898Z" fill="black"/>
<mask id="mask0" mask-type="alpha" maskUnits="userSpaceOnUse" x="4" y="4" width="44" height="44">
<path fill-rule="evenodd" clip-rule="evenodd" d="M29.1896 6.04887C29.1896 6.88758 30.5684 8.59677 31.6803 9.96285L31.6955 9.98165C33.4964 12.2073 35.5371 14.7295 35.5371 17.4223V17.6129C35.5371 21.9971 31.9853 25.5743 27.6075 25.5743C23.2296 25.5743 19.6715 22.0034 19.6715 17.6193V17.4223C19.6715 14.7473 21.7174 12.2058 23.5283 9.96285L23.5303 9.96032C24.6419 8.58198 26.019 6.87437 26.019 6.04887V6.00439C26.0126 5.94721 26.0126 5.89002 26.0254 5.80742C26.0698 5.33724 26.3113 4.33333 27.6075 4.33333H27.6202C28.9037 4.33968 29.1388 5.33724 29.1832 5.80742C29.193 5.87065 29.1915 5.92271 29.1903 5.96645C29.19 5.97985 29.1896 5.99247 29.1896 6.00439V6.04887ZM27.6075 22.391C30.2316 22.391 32.3666 20.2497 32.3666 17.6129H32.3729V17.4159C32.3729 15.8565 30.7167 13.8077 29.2494 11.9926L29.2214 11.958C28.6495 11.259 28.0967 10.5665 27.6075 9.8866C27.1246 10.5665 26.5718 11.2527 26.0063 11.9516L25.9981 11.9617C24.5197 13.7955 22.8484 15.8684 22.8484 17.4223V17.6129C22.8484 20.2497 24.9833 22.391 27.6075 22.391ZM46.2306 34.7048C46.2878 34.7111 46.345 34.7175 46.4022 34.7302C47.1265 34.8827 47.6666 35.5181 47.6666 36.2869V46.0782C47.6666 46.955 46.955 47.6667 46.0781 47.6667H44.9598H43.7463H43.6764H42.5962H23.2678C21.1074 47.6667 19.0742 46.8343 17.5366 45.3284L5.75652 33.7708C4.85427 32.8812 4.34596 31.6867 4.33325 30.4159C4.32054 29.1452 4.80344 27.9443 5.69298 27.0357C6.58252 26.1334 7.77705 25.6251 9.04782 25.6124C10.3186 25.5997 11.5195 26.0826 12.4281 26.9721L17.473 31.9218C18.2228 30.5303 19.6969 29.5836 21.387 29.5836L32.3665 29.5772H32.6016C36.4711 29.628 40.1754 30.8416 43.3205 33.0909L44.9598 34.2664C44.9598 34.2664 45.5825 34.5904 46.2306 34.7048ZM42.5898 44.4897H43.67H44.4769V37.869L43.7272 37.2908L41.4589 35.6642C38.8474 33.7962 35.7658 32.7859 32.5507 32.7478H32.3538L21.3743 32.7541C20.6754 32.7541 20.1035 33.326 20.1035 34.0249C20.1035 34.4443 20.3132 34.8382 20.6627 35.0733C21.082 35.3592 21.4378 35.5054 21.5776 35.5371C22.194 35.6261 29.2531 36.3822 33.8851 36.8715L33.5547 40.0293C29.952 39.6481 21.5077 38.7522 21.0185 38.6632C20.1544 38.5044 19.3093 37.9897 18.8772 37.6975C18.4706 37.4179 18.1211 37.0748 17.8289 36.6935L17.8161 36.7063L10.1979 29.2341C9.89924 28.9418 9.49259 28.783 9.07323 28.783C8.64752 28.7893 8.25358 28.9545 7.95495 29.2595C7.66268 29.5582 7.49748 29.9585 7.50383 30.3842C7.51018 30.8099 7.67538 31.2038 7.98037 31.5024L19.7604 43.0601C20.7008 43.9814 21.9462 44.4897 23.2678 44.4897H42.5898Z" fill="white"/>
</mask>
<g mask="url(#mask0)">
<rect width="52" height="52" fill="#08A8FF"/>
</g>
</svg>
