<svg xmlns="http://www.w3.org/2000/svg" viewBox="0 0 2967.19 919.96"><defs><style>.cls-1{fill:#fba919;}.cls-2{fill:#f50;}.cls-3{fill:#fd0;}</style></defs><g id="Layer_2" data-name="Layer 2"><g id="Layer_1-2" data-name="Layer 1"><path class="cls-1" d="M1414.63,503a263.6,263.6,0,0,0-16.42-84.49A241.3,241.3,0,0,0,1354.43,345C1335.16,322.85,1309.8,305,1279,292c-30.61-12.95-65.45-19.5-103.58-19.5H1011.88v472h163.56c39.47,0,75.33-6.91,106.57-20.52,31.47-13.72,57.2-32.51,76.45-55.83a245.15,245.15,0,0,0,43-77.05A248.44,248.44,0,0,0,1414.63,503Zm-345-174.66h105.79c57,0,101.73,17.19,132.85,51.09,31.42,34.22,47.78,76,48.59,124.13.79,49.42-14.76,93.11-46.27,129.82S1234.83,688,1175.44,688H1069.65Z"/><path class="cls-1" d="M1782.24,404.55v44.63a139.89,139.89,0,0,0-37.18-28.53,170.3,170.3,0,0,0-80.78-20c-48.24,0-89.47,16.42-122.55,48.84s-50,74.5-50,125,16.89,92.68,50.26,125.59,74.43,49.49,122.25,49.49c48.13,0,87.67-16.64,118-49.52v44.4h54.56V404.55Zm-118,291.12c-33.89,0-61.43-11.06-84.15-33.81s-33.8-51.32-33.8-87.36,11-64.49,33.76-87,50.3-33.53,84.19-33.53c22.36,0,42.35,4.51,59.4,13.42s29.89,20.25,38.59,33.83a161.31,161.31,0,0,1,20.32,48.15,105.27,105.27,0,0,1,0,51.18,161.46,161.46,0,0,1-20.32,47.87c-8.7,13.61-21.68,25-38.57,33.8C1706.65,691.16,1686.66,695.67,1664.28,695.67Z"/><polygon class="cls-1" points="2238.77 405.05 2035.81 877.05 1977.3 877.05 2040.67 729.41 1909.06 405.05 1968.09 405.05 2044.72 599.61 2071.03 664.44 2097.05 598.68 2179.56 405.05 2238.77 405.05"/><path class="cls-1" d="M2559,726.53l-10,4.79c-23.69,11.41-45.44,17.19-64.65,17.19-35.65,0-61.82-10.36-77.74-30.75-15.22-19.53-23-47.36-23-82.78V453.53h-67.33V404.11h67.33V312.9l53.91-5.62v96.83h107.73v49.42H2437.65V635c0,22,3.38,38.31,10,48.52,5.6,8.63,18,13,36.79,13,12.75,0,27.47-3.93,43.76-11.69l10.89-5.2Z"/><path class="cls-1" d="M2912.64,404.11v44.63a140.58,140.58,0,0,0-37.19-28.53,170.26,170.26,0,0,0-80.77-20c-48.24,0-89.47,16.42-122.56,48.84s-50,74.5-50,125,16.92,92.69,50.26,125.6,74.46,49.49,122.28,49.49c48.13,0,87.67-16.64,118-49.52V744h54.55V404.11Zm-118,291.12c-33.9,0-61.43-11.06-84.17-33.81s-33.81-51.32-33.81-87.37,11.06-64.48,33.78-87,50.28-33.53,84.2-33.53c22.35,0,42.34,4.51,59.4,13.42,16.91,8.86,29.89,20.25,38.57,33.83A160.81,160.81,0,0,1,2913,548.93a105.27,105.27,0,0,1,0,51.18A161,161,0,0,1,2892.65,648c-8.68,13.6-21.66,25-38.57,33.8S2817.06,695.23,2794.68,695.23Z"/><path class="cls-2" d="M212.38,30.8V97.12a30.81,30.81,0,0,1-61.62,0V30.8a30.81,30.81,0,0,1,61.62,0Z"/><path class="cls-2" d="M690.66,30.8V97.12a30.81,30.81,0,0,1-61.61,0V30.8a30.81,30.81,0,1,1,61.61,0Z"/><path class="cls-1" d="M841.42,78.61V920H115.6V804.36H725.82V194.21H115.6V804.36H0V78.61H135.76V97.12a45.81,45.81,0,0,0,91.62,0V78.61H614.05V97.12a45.81,45.81,0,0,0,91.61,0V78.61Z"/><polygon class="cls-3" points="115.6 804.36 115.6 919.96 0 804.36 115.6 804.36"/><path class="cls-3" d="M419.69,732.71a261.65,261.65,0,0,0,19.31-95h99.38V583.15a270.42,270.42,0,0,0,30.56,1.75,261.71,261.71,0,0,0,64.48-8V732.71Z"/><path class="cls-1" d="M197.21,540.19a192.78,192.78,0,0,1,75.5-152.91,259.31,259.31,0,0,1,48.05,25.32,262.74,262.74,0,0,1,41.52,34.07,92.13,92.13,0,0,0-20.91,9,94.9,94.9,0,0,0-20.61,15.66,97.48,97.48,0,0,0,68.89,166.37H439a261.65,261.65,0,0,1-19.31,95h-30C283.35,732.71,197.21,646.49,197.21,540.19Z"/><path class="cls-2" d="M272.71,387.28a192.45,192.45,0,0,1,88.2-37.41v-84H633.42V576.92a261.71,261.71,0,0,1-64.48,8,270.42,270.42,0,0,1-30.56-1.75V360.9H456v70.86l-81,12.09a99.17,99.17,0,0,0-12.7,2.82,262.74,262.74,0,0,0-41.52-34.07A259.31,259.31,0,0,0,272.71,387.28Z"/></g></g></svg>
