<svg xmlns="http://www.w3.org/2000/svg" viewBox="0 0 734.88 225.84"><defs><style>.cls-1{fill:#1ce7be;}</style></defs><g id="Logos-Export"><g id="logo2"><path id="logo2-2" data-name="logo2" class="cls-1" d="M178.23,169.48H88a22.12,22.12,0,0,1-21.77-18.17L56.7,99.08A19.14,19.14,0,0,1,72.56,76.74l128-20.15a16.18,16.18,0,0,1,18.2,19.9L199.7,152.72h0A22.1,22.1,0,0,1,178.23,169.48ZM203.12,64.9a7.49,7.49,0,0,0-1.24.1l-128,20.15a10.63,10.63,0,0,0-8.81,12.41l9.49,52.23A13.62,13.62,0,0,0,88,161h90.27a13.6,13.6,0,0,0,13.21-10.32L210.5,74.42a7.66,7.66,0,0,0-7.38-9.52Zm-7.55,86.79h0Zm-16.86-39.18c-16.23,1.47-25.45-4.92-29.78-20.63a.25.25,0,0,0-.49.09c1.47,16.23-4.91,25.45-20.62,29.79a.24.24,0,0,0,.09.48c16.22-1.47,25.45,4.92,29.78,20.62a.25.25,0,0,0,.49-.08c-1.47-16.23,4.91-25.45,20.62-29.79A.24.24,0,0,0,178.71,112.51Zm151.06-10.76a5.47,5.47,0,0,1,10.8-1.7c.46,2.92-1.44,5.46-4.67,6A5.15,5.15,0,0,1,329.77,101.75Zm3.05,9.93h4.54a2,2,0,0,1,2,2v34.44a1.08,1.08,0,0,1-1.08,1.08h-6.34a1.08,1.08,0,0,1-1.08-1.08V113.67A2,2,0,0,1,332.82,111.68Zm22-15.18,4.95-.78a1.63,1.63,0,0,1,1.88,1.6v50.79a1.08,1.08,0,0,1-1.08,1.08h-6.35a1.08,1.08,0,0,1-1.08-1.08V98.46A2,2,0,0,1,354.81,96.5Zm46.52,43.6a17.15,17.15,0,0,1-9.06,2.49c-6,0-10.26-2.85-11.55-7.43l28.57-4.44a1.46,1.46,0,0,0,1.22-1.53,24.18,24.18,0,0,0-.8-5.22c-2.15-8.06-8.46-12.82-17.91-13a19.56,19.56,0,0,0-20.1,18.8c-.32,12.4,7.73,20.52,20.34,20.52a22.49,22.49,0,0,0,15.36-5.71,1.09,1.09,0,0,0,0-1.57l-2.52-2.45A2.91,2.91,0,0,0,401.33,140.1Zm-20.81-13.5a9.81,9.81,0,0,1,.47-1.54,8.13,8.13,0,0,1,.64-1.41q.12-.24.27-.48c.1-.17.2-.34.31-.5l0,0,.27-.38,0,0c1.88-2.55,4.9-3.94,8.83-3.94,5.47,0,9.28,2.59,10.54,6.84l-21.71,3.43A15.12,15.12,0,0,1,380.52,126.6Zm-59.24,21.32L311.5,94a1.45,1.45,0,0,0-1.64-1.17l-3,.48a2.16,2.16,0,0,0-1.63,1.23l-16.54,36.09L273.84,99.56a1.43,1.43,0,0,0-1.52-.81l-2.41.37a2.17,2.17,0,0,0-1.77,1.62l-11.78,47.11a1.08,1.08,0,0,0,1.05,1.34H264a1.08,1.08,0,0,0,1-.8l8.11-30,11.74,23.78a2.15,2.15,0,0,0,1.94,1.21h4a2.17,2.17,0,0,0,2-1.27l13.11-28.87,6.84,35.08a1.07,1.07,0,0,0,1.06.87h6.46A1.08,1.08,0,0,0,321.28,147.92Zm52.35-12.76s-.17-.89-.27-1.34A9.63,9.63,0,0,0,373.63,135.16Zm315.43-24.23c-4.72,0-8.43,2-11.39,6.53l0-3.82a2,2,0,0,0-2-2H672a2,2,0,0,0-2,2v35.52h8.5V130.9c0-7.37,3.88-11.85,10-11.85a10.44,10.44,0,0,1,2.53.3,1.26,1.26,0,0,0,1.52-.92l1.18-4.75a2,2,0,0,0-1.51-2.44A16,16,0,0,0,689.06,110.93ZM652.82,140.1a17.15,17.15,0,0,1-9.06,2.49c-6,0-10.26-2.85-11.55-7.43l28.57-4.44a1.46,1.46,0,0,0,1.22-1.53,24.18,24.18,0,0,0-.8-5.22c-2.15-8.06-8.46-12.82-17.91-13a19.56,19.56,0,0,0-20.1,18.8c-.32,12.4,7.73,20.52,20.34,20.52a22.49,22.49,0,0,0,15.36-5.71,1.09,1.09,0,0,0,0-1.57l-2.52-2.45A2.91,2.91,0,0,0,652.82,140.1ZM632,126.6a9.81,9.81,0,0,1,.47-1.54,8.13,8.13,0,0,1,.64-1.41q.12-.24.27-.48c.1-.17.2-.34.31-.5l0,0,.27-.38,0,0c1.88-2.55,4.9-3.94,8.83-3.94,5.47,0,9.28,2.59,10.54,6.84l-21.71,3.43A15.12,15.12,0,0,1,632,126.6ZM610.44,148l-14-15.38v15.48a1.08,1.08,0,0,1-1.08,1.08h-6.35a1.08,1.08,0,0,1-1.08-1.08V98.46a2,2,0,0,1,1.68-2l5-.78a1.63,1.63,0,0,1,1.88,1.6v30.15l12.36-14.53a3.6,3.6,0,0,1,2.75-1.27h7.14a.73.73,0,0,1,.55,1.2l-14,16a1.22,1.22,0,0,0,0,1.61l15.6,16.91a1.08,1.08,0,0,1-.79,1.81h-7A3.63,3.63,0,0,1,610.44,148Zm-33.36-37.08c-4.72,0-8.44,2-11.39,6.53l-.06-3.82a2,2,0,0,0-2-2H560a2,2,0,0,0-2,2v34.44a1.08,1.08,0,0,0,1.08,1.08h6.34a1.08,1.08,0,0,0,1.08-1.08V130.9c0-7.37,3.87-11.85,10-11.85a10.44,10.44,0,0,1,2.53.3,1.24,1.24,0,0,0,1.51-.92l1.19-4.75a2,2,0,0,0-1.51-2.44A16.08,16.08,0,0,0,577.08,110.93Zm-30.49,2.74v34.44a1.08,1.08,0,0,1-1.08,1.08h-5.45a1.08,1.08,0,0,1-1.08-1.06l-.06-3.95C536,147.83,531,150,525.25,150c-11,0-18.6-8.05-18.6-19.59s7.6-19.59,18.6-19.59c5.85,0,10.79,2.2,13.67,5.84l.05-3a2,2,0,0,1,2-2h3.65A2,2,0,0,1,546.59,113.67Zm-8.64,15c-1.05-6.9-6.44-11-13.12-10s-10.6,6.53-9.54,13.44,6.44,11,13.12,10S539,135.61,538,128.7Zm-37,19.22L491.21,94a1.45,1.45,0,0,0-1.65-1.17l-3,.48a2.15,2.15,0,0,0-1.63,1.23l-16.53,36.09L453.55,99.56a1.44,1.44,0,0,0-1.53-.81l-2.41.37a2.19,2.19,0,0,0-1.77,1.62l-11.78,47.11a1.08,1.08,0,0,0,1.05,1.34h6.56a1.06,1.06,0,0,0,1-.8l8.12-30,11.73,23.78a2.17,2.17,0,0,0,1.94,1.21h4a2.19,2.19,0,0,0,2-1.27l13.1-28.87,6.84,35.08a1.08,1.08,0,0,0,1.06.87h6.46A1.08,1.08,0,0,0,501,147.92Z"/></g></g></svg>